<svg width="50" height="46" viewBox="0 0 50 46" fill="none" xmlns="http://www.w3.org/2000/svg">
<path d="M0 23.815C0 16.815 3.5 5.91497 7.2 1.21497C9 -0.885025 13.5 -0.185026 16.3 2.71497C17.7 4.31497 20.3 8.61497 22.1 12.315L25.3 19.215L28.9 12.115C30.9 8.21497 33.5 3.91497 34.7 2.51497C37.3 -0.285026 41.1 -0.785026 43.4 1.51497C45.8 4.01497 49.1 14.115 49.7 21.015C50.4 28.815 48.4 33.715 42.5 38.815C37.4 43.415 32.7 45.015 25.1 45.015C19.499 44.9747 14.3363 43.4243 10.1682 40.8219C10.5891 40.9377 11.0364 41 11.5 41C13.5074 41 15.2078 39.8317 15.7875 38.2183C15.858 38.2507 15.9288 38.2829 16 38.315C27.3 43.415 40.7 38.315 44.5 27.415C45.9 23.415 44.7 16.015 41.5 8.31497C40.1 4.91497 39.9 4.81497 38.1 6.41497C36 8.31497 31.2 18.015 28 26.715C26.8 30.215 25.4 32.815 25 32.515C24.6 32.315 22.9 28.115 21.1 23.215C19.4 18.315 16.6 12.215 15 9.71497C13.4 7.11497 11.7 5.01497 11.2 5.01497C9.9 5.01497 7.1 11.615 5.6 18.015C4.09361 24.4514 5.25964 29.6688 9.06599 33.6351C7.82307 34.3469 7 35.588 7 37C7 37.7152 7.21119 38.3866 7.58116 38.9676C2.90045 35.1274 0 29.769 0 23.815Z" fill="#FFF1CC"/>
<path d="M7.87351 3.2C4.67351 8.3 2.57351 16.7 3.07351 22.1C3.67351 28.4 7.27351 33 14.0735 36.4C27.8735 43.3 45.8735 36.2 47.5735 23.1C48.2735 17.8 46.1735 7.7 43.4735 3.7C39.0735 -2.8 34.0735 -0.299999 28.1735 11.4L25.5735 16.4L22.6735 10.5C18.7735 2.7 16.1735 0 12.6735 0C10.5735 0 9.37351 0.8 7.87351 3.2ZM16.8735 8.6C18.4735 11.1 20.9735 16.5 22.4735 20.6C23.9735 24.7 25.4735 27.7 25.8735 27.3C26.1735 26.9 27.7735 23.3 29.3735 19.5C32.2735 12.3 36.0735 5.6 37.6735 4.6C39.1735 3.7 40.4735 5.9 42.2735 11.9C44.4735 19.3 44.2735 23.1 41.5735 27.1C34.6735 37.5 16.2735 37.4 9.07351 26.9C7.07351 24.1 6.77351 22.6 7.17351 18.5C7.77351 12.9 11.2735 4 12.8735 4C13.4735 4 15.2735 6.1 16.8735 8.6Z" fill="#FFF1CC"/>
<path d="M6.1954 33.2931C4.99791 35.0893 4 36.8856 4 37.2847C4 38.3824 11.3845 44.8689 12.582 44.9686C13.1808 44.9686 14.8772 43.2722 16.1745 41.1766L18.6693 37.4843L14.3782 33.6923C12.0831 31.6965 9.78787 30 9.28892 30C8.88975 30 7.49268 31.4969 6.1954 33.2931ZM13.9791 37.8835C13.9791 38.1829 13.5799 38.9812 13.1808 39.6797C12.0831 41.3762 7.79205 37.5841 8.59038 35.5883C9.08933 34.1912 9.38871 34.1912 11.5841 35.6881C12.8814 36.4864 13.9791 37.4843 13.9791 37.8835Z" fill="#FFF1CC"/>
</svg>
