<svg width="44" height="44" viewBox="0 0 44 44" fill="none" xmlns="http://www.w3.org/2000/svg">
<path d="M22.1485 36.1013L28.9551 19.4332L27.1022 18.6738L26.8989 19.1716L27.0186 19.1878C26.6882 21.6367 26.3762 23.5882 26.0637 24.9786C25.9082 25.6703 25.7448 26.2588 25.5658 26.7124C25.4764 26.9388 25.3719 27.1609 25.2452 27.3549C25.1267 27.5364 24.9366 27.7752 24.6443 27.9298C24.2979 28.113 23.8948 28.1304 23.5287 27.9645C23.4643 27.9352 23.4043 27.9018 23.3485 27.8657L19.9854 36.1013H22.1485Z" fill="#FFF1CC"/>
<path d="M18.0534 36.1013L10.9367 18.6738L9.08374 19.4332L15.8903 36.1013H18.0534Z" fill="#FFF1CC"/>
<path d="M24.519 26.2491C24.5228 26.2533 24.5246 26.2559 24.5246 26.2559L24.523 26.2542L24.519 26.2491Z" fill="#FFF1CC"/>
<path fill-rule="evenodd" clip-rule="evenodd" d="M18.5189 37.1041C23.3781 37.1041 27.8002 35.2293 31.1037 32.1623L32.0261 33.0863L31.1502 33.9636L41.1687 44L44 41.1636L33.9816 31.1273L33.4417 31.6681L32.4971 30.7217C35.3254 27.4642 37.0379 23.2085 37.0379 18.5521C37.0379 8.30604 28.7467 0 18.5189 0C8.29121 0 0 8.30604 0 18.5521C0 28.7981 8.29121 37.1041 18.5189 37.1041ZM18.5189 33.0929C26.5353 33.0929 33.0338 26.5827 33.0338 18.5521C33.0338 10.5214 26.5353 4.01126 18.5189 4.01126C10.5026 4.01126 4.00409 10.5214 4.00409 18.5521C4.00409 26.5827 10.5026 33.0929 18.5189 33.0929Z" fill="#FFF1CC"/>
<path fill-rule="evenodd" clip-rule="evenodd" d="M26.2567 7.53302C28.1426 9.1164 29.4263 11.4343 29.6821 14.487C30.4959 14.8052 31.019 15.446 31.1951 16.2293C31.3846 17.0716 31.1519 17.9625 30.7075 18.6676C30.2551 19.3856 29.5238 20.0095 28.5758 20.2621C28.0005 20.4154 27.3835 20.422 26.7495 20.2636C26.4757 22.0189 26.2116 23.4555 25.9467 24.5391C25.7844 25.2033 25.6129 25.7724 25.4237 26.2132C25.3291 26.4337 25.218 26.6508 25.0832 26.8406C24.9548 27.0214 24.757 27.2461 24.4649 27.3882C24.1295 27.5514 23.7487 27.5657 23.3981 27.4195C23.0928 27.2921 22.8808 27.0733 22.7419 26.8948C22.4667 26.5412 22.2477 26.0418 22.0567 25.495C21.8083 24.7839 21.5534 23.8292 21.2861 22.6324C20.6206 23.0505 19.8267 23.2521 19.1017 23.2626C17.9799 23.2788 16.7037 22.8499 15.9244 21.8612C14.95 22.5529 13.8006 22.705 12.8093 22.3568C12.1113 22.1116 11.5003 21.6133 11.1636 20.9033C11.0796 20.7264 11.0154 20.5419 10.971 20.3516C9.5135 20.6516 8.23293 20.1342 7.51812 19.094C7.06082 18.4286 6.87872 17.5796 7.10241 16.7567C7.26736 16.1498 7.63609 15.6162 8.17767 15.2084C7.72255 12.2337 8.75962 9.77305 10.6107 8.02439C12.5716 6.172 15.3977 5.15395 18.2292 5.02755C21.0646 4.90097 24.0298 5.66331 26.2567 7.53302ZM10.2677 15.4857C9.67866 12.9093 10.4779 10.9066 11.9842 9.48358C13.5292 8.02413 15.8658 7.14068 18.3184 7.03119C20.7669 6.92188 23.2069 7.58926 24.9707 9.07017C26.7021 10.5239 27.8832 12.8442 27.7103 16.2861L28.9355 16.3478C29.1568 16.4271 29.2151 16.5505 29.242 16.6701C29.2896 16.8816 29.2438 17.2334 29.0146 17.5969C28.7936 17.9477 28.4563 18.2186 28.061 18.3239C27.6867 18.4237 27.1562 18.4031 26.4713 17.9864L25.8942 17.6353C25.6477 17.7936 25.3655 17.9421 25.052 18.0789L24.9613 18.6977C24.619 21.0305 24.3049 22.8236 24.0021 24.0621C23.9551 24.2543 23.9092 24.4297 23.8646 24.5888C23.5435 23.5961 23.1821 22.0579 22.7698 19.9078L20.7893 20.0122C20.7309 20.701 20.0926 21.2425 19.0728 21.2572C18.0758 21.2716 17.3451 20.7602 17.2234 19.9481L17.0646 18.8889C16.6778 18.8353 16.3053 18.7693 15.95 18.6923L15.3937 19.5512C14.7577 20.5333 13.9411 20.629 13.4718 20.4642C13.223 20.3768 13.0556 20.2191 12.9719 20.0426C12.8937 19.8778 12.8465 19.6084 13.0021 19.2054L13.5235 17.8556C13.1994 17.6835 12.9204 17.497 12.6934 17.2989L11.5538 17.9835C10.1793 18.8091 9.41516 18.3176 9.16717 17.9567C9.01536 17.7358 8.97796 17.4903 9.03412 17.2836C9.08533 17.0952 9.24434 16.8311 9.70324 16.6239L10.4508 16.2864L10.2677 15.4857Z" fill="#FFF1CC"/>
</svg>
