<svg width="38" height="38" viewBox="0 0 38 38" fill="none" xmlns="http://www.w3.org/2000/svg">
<path d="M32.1979 32.2063H26.6458V23.5042C26.6458 21.4292 26.6042 18.7583 23.75 18.7583C20.8562 18.7583 20.4146 21.0167 20.4146 23.3521V32.2063H14.8604V14.3125H20.1937V16.75H20.2667C21.0125 15.3458 22.825 13.8604 25.5333 13.8604C31.1583 13.8604 32.2 17.5646 32.2 22.3833V32.2063H32.1979ZM8.58958 11.8646C8.16574 11.8651 7.74596 11.782 7.3543 11.62C6.96264 11.458 6.60681 11.2203 6.3072 10.9205C6.0076 10.6207 5.77011 10.2647 5.60836 9.87294C5.4466 9.48118 5.36376 9.06134 5.36458 8.6375C5.365 7.99966 5.55454 7.37626 5.90925 6.84614C6.26396 6.31602 6.7679 5.90299 7.35735 5.65928C7.9468 5.41556 8.59528 5.35212 9.22079 5.47696C9.8463 5.6018 10.4207 5.90932 10.8715 6.36064C11.3222 6.81195 11.629 7.38679 11.753 8.01246C11.8771 8.63813 11.8128 9.28653 11.5683 9.87566C11.3238 10.4648 10.9101 10.9682 10.3796 11.3222C9.84899 11.6763 9.22743 11.865 8.58958 11.8646ZM11.3729 32.2063H5.80417V14.3125H11.375V32.2063H11.3729ZM34.9792 0.25H3.01875C1.48542 0.25 0.25 1.45833 0.25 2.95208V35.0479C0.25 36.5417 1.4875 37.75 3.01667 37.75H34.9708C36.5 37.75 37.75 36.5417 37.75 35.0479V2.95208C37.75 1.45833 36.5 0.25 34.9708 0.25H34.9792Z" fill="#FFF1CC"/>
</svg>
