<svg width="121" height="130" viewBox="0 0 121 130" fill="none" xmlns="http://www.w3.org/2000/svg">
<path d="M116.365 90.5665C115.704 90.5665 115.105 90.9543 114.817 91.5524C104.931 112.104 84.0009 126.278 59.7787 126.278C35.5566 126.278 14.6261 112.104 4.74007 91.5524C4.45234 90.9543 3.85351 90.5665 3.19284 90.5665C1.97354 90.5665 1.15631 91.8223 1.68566 92.927C12.0952 114.651 34.1963 129.642 59.7787 129.642C85.3612 129.642 107.462 114.651 117.872 92.927C118.401 91.8223 117.584 90.5665 116.365 90.5665Z" fill="#FFF1CC"/>
<path d="M3.36962 38.7099C4.02642 38.7099 4.62252 38.3266 4.91237 37.7338C14.8679 17.3745 35.6964 3.36329 59.7787 3.36329C83.8611 3.36329 104.69 17.3745 114.645 37.7338C114.935 38.3266 115.531 38.7099 116.188 38.7099C117.412 38.7099 118.229 37.4452 117.691 36.3396C107.207 14.8184 85.2137 0 59.7787 0C34.3438 0 12.35 14.8184 1.86677 36.3396C1.32822 37.4452 2.1455 38.7099 3.36962 38.7099Z" fill="#FFF1CC"/>
<path d="M6.90133 54.7333L7.49908 58.9962L7.3904 58.6137C8.22363 57.1198 9.40102 55.9174 10.9226 55.0065C12.4441 54.0592 14.3098 53.5856 16.5197 53.5856C18.7658 53.5856 20.6315 54.2596 22.1168 55.6077C23.6384 56.9194 24.4173 58.6319 24.4535 60.7452V78.6168H16.8458V63.5871C16.8095 62.5305 16.5197 61.6925 15.9763 61.0731C15.4691 60.4172 14.5997 60.0893 13.3679 60.0893C12.2086 60.0893 11.1943 60.4719 10.3248 61.237C9.45536 62.0022 8.78515 63.0406 8.31419 64.3523C7.84324 65.664 7.60776 67.176 7.60776 68.8885V78.6168H0V54.7333H6.90133Z" fill="#FFF1CC"/>
<path d="M30.4175 66.3745C30.4175 63.9333 30.979 61.7471 32.102 59.816C33.2613 57.885 34.8734 56.3729 36.9384 55.2798C39.0034 54.1503 41.3763 53.5856 44.0571 53.5856C46.7741 53.5856 49.1289 54.1503 51.1214 55.2798C53.1139 56.3729 54.6355 57.885 55.6861 59.816C56.7729 61.7471 57.3163 63.9333 57.3163 66.3745C57.3163 68.8156 56.7729 71.02 55.6861 72.9875C54.6355 74.9186 53.1139 76.4489 51.1214 77.5784C49.1289 78.7079 46.7379 79.2727 43.9484 79.2727C41.34 79.2727 39.0034 78.7626 36.9384 77.7424C34.9097 76.7222 33.3156 75.2465 32.1564 73.3154C30.9971 71.3843 30.4175 69.0707 30.4175 66.3745ZM38.0796 66.4291C38.0796 67.6679 38.3331 68.7974 38.8403 69.8176C39.3475 70.8014 40.0358 71.5847 40.9053 72.1677C41.7748 72.7507 42.7529 73.0422 43.8397 73.0422C45.0352 73.0422 46.0677 72.7507 46.9372 72.1677C47.8066 71.5847 48.4768 70.8014 48.9478 69.8176C49.4187 68.7974 49.6542 67.6679 49.6542 66.4291C49.6542 65.1539 49.4187 64.0244 48.9478 63.0406C48.4768 62.0568 47.8066 61.2735 46.9372 60.6905C46.0677 60.1075 45.0352 59.816 43.8397 59.816C42.7529 59.816 41.7748 60.1075 40.9053 60.6905C40.0358 61.2735 39.3475 62.0568 38.8403 63.0406C38.3331 64.0244 38.0796 65.1539 38.0796 66.4291Z" fill="#FFF1CC"/>
<path d="M70.2109 54.7333L70.8086 58.9962L70.6999 58.6137C71.5332 57.1198 72.7106 55.9174 74.2321 55.0065C75.7537 54.0592 77.6194 53.5856 79.8293 53.5856C82.0754 53.5856 83.9411 54.2596 85.4264 55.6077C86.948 56.9194 87.7268 58.6319 87.7631 60.7452V78.6168H80.1553V63.5871C80.1191 62.5305 79.8293 61.6925 79.2859 61.0731C78.7787 60.4172 77.9092 60.0893 76.6775 60.0893C75.5182 60.0893 74.5038 60.4719 73.6344 61.237C72.7649 62.0022 72.0947 63.0406 71.6237 64.3523C71.1528 65.664 70.9173 67.176 70.9173 68.8885V78.6168H63.3096V54.7333H70.2109Z" fill="#FFF1CC"/>
<path d="M93.727 66.3745C93.727 63.9333 94.2885 61.7471 95.4116 59.816C96.5709 57.885 98.183 56.3729 100.248 55.2798C102.313 54.1503 104.686 53.5856 107.367 53.5856C110.084 53.5856 112.438 54.1503 114.431 55.2798C116.423 56.3729 117.945 57.885 118.996 59.816C120.082 61.7471 120.626 63.9333 120.626 66.3745C120.626 68.8156 120.082 71.02 118.996 72.9875C117.945 74.9186 116.423 76.4489 114.431 77.5784C112.438 78.7079 110.047 79.2727 107.258 79.2727C104.65 79.2727 102.313 78.7626 100.248 77.7424C98.2192 76.7222 96.6252 75.2465 95.4659 73.3154C94.3066 71.3843 93.727 69.0707 93.727 66.3745ZM101.389 66.4291C101.389 67.6679 101.643 68.7974 102.15 69.8176C102.657 70.8014 103.345 71.5847 104.215 72.1677C105.084 72.7507 106.062 73.0422 107.149 73.0422C108.345 73.0422 109.377 72.7507 110.247 72.1677C111.116 71.5847 111.786 70.8014 112.257 69.8176C112.728 68.7974 112.964 67.6679 112.964 66.4291C112.964 65.1539 112.728 64.0244 112.257 63.0406C111.786 62.0568 111.116 61.2735 110.247 60.6905C109.377 60.1075 108.345 59.816 107.149 59.816C106.062 59.816 105.084 60.1075 104.215 60.6905C103.345 61.2735 102.657 62.0568 102.15 63.0406C101.643 64.0244 101.389 65.1539 101.389 66.4291Z" fill="#FFF1CC"/>
</svg>
