<svg width="44" height="44" viewBox="0 0 44 44" fill="none" xmlns="http://www.w3.org/2000/svg">
<path fill-rule="evenodd" clip-rule="evenodd" d="M12 41.9161C10.7797 41.7098 9.64405 41.1293 8.75736 40.2426C7.63214 39.1174 7 37.5913 7 36C7 34.4087 7.63214 32.8826 8.75736 31.7574C9.04215 31.4726 9.35262 31.2194 9.68333 31C9.35262 30.7806 9.04215 30.5274 8.75736 30.2426C7.63214 29.1174 7 27.5913 7 26C7 24.4087 7.63214 22.8826 8.75736 21.7574C9.04215 21.4726 9.35262 21.2194 9.68333 21C9.35262 20.7806 9.04215 20.5274 8.75736 20.2426C7.63214 19.1174 7 17.5913 7 16C7 14.4087 7.63214 12.8826 8.75736 11.7574C9.04215 11.4726 9.35262 11.2194 9.68333 11C9.35262 10.7806 9.04215 10.5274 8.75736 10.2426C7.63214 9.11742 7 7.5913 7 6C7 4.4087 7.63214 2.88258 8.75736 1.75736C9.64405 0.870668 10.7797 0.290163 12 0.0838944V0H39V0.0838944C40.2203 0.290163 41.3559 0.870668 42.2426 1.75736C43.3679 2.88258 44 4.4087 44 6C44 7.5913 43.3679 9.11742 42.2426 10.2426C41.9579 10.5274 41.6474 10.7806 41.3167 11C41.6474 11.2194 41.9579 11.4726 42.2426 11.7574C43.3679 12.8826 44 14.4087 44 16C44 17.5913 43.3679 19.1174 42.2426 20.2426C41.9579 20.5274 41.6474 20.7806 41.3167 21C41.6474 21.2194 41.9579 21.4726 42.2426 21.7574C43.3679 22.8826 44 24.4087 44 26C44 27.5913 43.3679 29.1174 42.2426 30.2426C41.9579 30.5274 41.6474 30.7806 41.3167 31C41.6474 31.2194 41.9579 31.4726 42.2426 31.7574C43.3679 32.8826 44 34.4087 44 36C44 37.5913 43.3679 39.1174 42.2426 40.2426C41.3559 41.1293 40.2203 41.7098 39 41.9161V42H12V41.9161ZM12.3132 4H38.687C38.7758 4.06098 38.8684 4.11605 38.9616 4.16489C39.1455 4.26124 39.3155 4.38553 39.465 4.53502C39.8535 4.92355 40.0718 5.45052 40.0718 6C40.0718 6.54948 39.8535 7.07645 39.465 7.46498C39.3155 7.61447 39.1455 7.73876 38.9616 7.83511C38.4724 8.09144 38 8.51952 38 9.0718V12.9282C38 13.4805 38.4724 13.9086 38.9616 14.1649C39.1455 14.2612 39.3155 14.3855 39.465 14.535C39.8535 14.9236 40.0718 15.4505 40.0718 16C40.0718 16.5495 39.8535 17.0764 39.465 17.465C39.3155 17.6145 39.1455 17.7388 38.9616 17.8351C38.4724 18.0914 38 18.5195 38 19.0718V22.9282C38 23.4805 38.4724 23.9086 38.9616 24.1649C39.1455 24.2612 39.3155 24.3855 39.465 24.535C39.8535 24.9236 40.0718 25.4505 40.0718 26C40.0718 26.5495 39.8535 27.0764 39.465 27.465C39.3155 27.6145 39.1455 27.7388 38.9616 27.8351C38.4724 28.0914 38 28.5195 38 29.0718V32.9282C38 33.4805 38.4724 33.9086 38.9616 34.1649C39.1455 34.2612 39.3155 34.3855 39.465 34.535C39.8535 34.9236 40.0718 35.4505 40.0718 36C40.0718 36.5495 39.8535 37.0764 39.465 37.465C39.3155 37.6145 39.1455 37.7388 38.9616 37.8351C38.8684 37.8839 38.7758 37.939 38.687 38H12.313C12.2242 37.939 12.1316 37.8839 12.0384 37.8351C11.8545 37.7388 11.6845 37.6145 11.535 37.465C11.1465 37.0764 10.9282 36.5495 10.9282 36C10.9282 35.4505 11.1465 34.9236 11.535 34.535C11.6845 34.3855 11.8545 34.2612 12.0384 34.1649C12.5276 33.9086 13 33.4805 13 32.9282V29.0718C13 28.5195 12.5276 28.0914 12.0384 27.8351C11.8545 27.7388 11.6845 27.6145 11.535 27.465C11.1465 27.0764 10.9282 26.5495 10.9282 26C10.9282 25.4505 11.1465 24.9236 11.535 24.535C11.6845 24.3855 11.8545 24.2612 12.0384 24.1649C12.5276 23.9086 13 23.4805 13 22.9282V19.0718C13 18.5195 12.5276 18.0914 12.0384 17.8351C11.8545 17.7388 11.6845 17.6145 11.535 17.465C11.1465 17.0764 10.9282 16.5495 10.9282 16C10.9282 15.4505 11.1465 14.9236 11.535 14.535C11.6845 14.3855 11.8545 14.2612 12.0384 14.1649C12.5276 13.9086 13 13.4805 13 12.9282V9.0717C13 8.51942 12.5276 8.09134 12.0384 7.835C11.8545 7.73866 11.6846 7.61439 11.5351 7.46491C11.1466 7.07639 10.9283 6.54945 10.9283 6C10.9283 5.45055 11.1466 4.9236 11.5351 4.53509C11.6846 4.38561 11.8545 4.26134 12.0384 4.165C12.1316 4.11613 12.2243 4.06102 12.3132 4Z" fill="#FFF1CC"/>
<path d="M10 6H5.31316C5.22427 6.06102 5.13162 6.11613 5.03836 6.165C4.85452 6.26134 4.68456 6.38561 4.53509 6.53509C4.14657 6.9236 3.9283 7.45055 3.9283 8C3.9283 8.54945 4.14657 9.0764 4.53509 9.46491C4.68456 9.61439 4.85452 9.73866 5.03836 9.835C5.52755 10.0913 6 10.5194 6 11.0717L6 14.9282C6 15.4805 5.52755 15.9086 5.03836 16.1649C4.85449 16.2612 4.68451 16.3855 4.53502 16.535C4.14648 16.9236 3.9282 17.4505 3.9282 18C3.9282 18.5495 4.14648 19.0764 4.53502 19.465C4.68451 19.6145 4.85449 19.7388 5.03836 19.8351C5.52755 20.0914 6 20.5195 6 21.0718L6 24.9282C6 25.4805 5.52755 25.9086 5.03836 26.1649C4.85449 26.2612 4.68451 26.3855 4.53502 26.535C4.14648 26.9236 3.9282 27.4505 3.9282 28C3.9282 28.5495 4.14648 29.0764 4.53502 29.465C4.68451 29.6145 4.85449 29.7388 5.03836 29.8351C5.52755 30.0914 6 30.5195 6 31.0718L6 34.9282C6 35.4805 5.52755 35.9086 5.03836 36.1649C4.85449 36.2612 4.68451 36.3855 4.53502 36.535C4.14648 36.9236 3.9282 37.4505 3.9282 38C3.9282 38.5495 4.14648 39.0764 4.53502 39.465C4.68451 39.6145 4.85449 39.7388 5.03836 39.8351C5.13157 39.8839 5.22417 39.939 5.313 40H36.6569C36.3613 40.8358 35.8815 41.6038 35.2426 42.2426C34.3559 43.1293 33.2203 43.7098 32 43.9161V44H5V43.9161C3.77969 43.7098 2.64405 43.1293 1.75736 42.2426C0.632141 41.1174 0 39.5913 0 38C0 36.4087 0.632141 34.8826 1.75736 33.7574C2.04215 33.4726 2.35262 33.2194 2.68333 33C2.35262 32.7806 2.04215 32.5274 1.75736 32.2426C0.632141 31.1174 0 29.5913 0 28C0 26.4087 0.632141 24.8826 1.75736 23.7574C2.04215 23.4726 2.35262 23.2194 2.68333 23C2.35262 22.7806 2.04215 22.5274 1.75736 22.2426C0.632141 21.1174 0 19.5913 0 18C0 16.4087 0.632141 14.8826 1.75736 13.7574C2.04215 13.4726 2.35262 13.2194 2.68333 13C2.35262 12.7806 2.04215 12.5274 1.75736 12.2426C0.632141 11.1174 0 9.5913 0 8C0 6.4087 0.632141 4.88258 1.75736 3.75736C2.64405 2.87067 3.77969 2.29016 5 2.08389V2H10V6Z" fill="#FFF1CC"/>
<path d="M18 9C18 9.55229 17.5523 10 17 10C16.4477 10 16 9.55229 16 9C16 8.44771 16.4477 8 17 8C17.5523 8 18 8.44771 18 9Z" fill="#FFF1CC"/>
<path d="M18 33C18 33.5523 17.5523 34 17 34C16.4477 34 16 33.5523 16 33C16 32.4477 16.4477 32 17 32C17.5523 32 18 32.4477 18 33Z" fill="#FFF1CC"/>
<path d="M18 17C18 17.5523 17.5523 18 17 18C16.4477 18 16 17.5523 16 17C16 16.4477 16.4477 16 17 16C17.5523 16 18 16.4477 18 17Z" fill="#FFF1CC"/>
<path d="M18 25C18 25.5523 17.5523 26 17 26C16.4477 26 16 25.5523 16 25C16 24.4477 16.4477 24 17 24C17.5523 24 18 24.4477 18 25Z" fill="#FFF1CC"/>
<path d="M36 9C36 9.55229 35.5523 10 35 10C34.4477 10 34 9.55229 34 9C34 8.44771 34.4477 8 35 8C35.5523 8 36 8.44771 36 9Z" fill="#FFF1CC"/>
<path d="M36 33C36 33.5523 35.5523 34 35 34C34.4477 34 34 33.5523 34 33C34 32.4477 34.4477 32 35 32C35.5523 32 36 32.4477 36 33Z" fill="#FFF1CC"/>
<path d="M36 17C36 17.5523 35.5523 18 35 18C34.4477 18 34 17.5523 34 17C34 16.4477 34.4477 16 35 16C35.5523 16 36 16.4477 36 17Z" fill="#FFF1CC"/>
<path d="M36 25C36 25.5523 35.5523 26 35 26C34.4477 26 34 25.5523 34 25C34 24.4477 34.4477 24 35 24C35.5523 24 36 24.4477 36 25Z" fill="#FFF1CC"/>
<path d="M27 9C27 9.55229 26.5523 10 26 10C25.4477 10 25 9.55229 25 9C25 8.44771 25.4477 8 26 8C26.5523 8 27 8.44771 27 9Z" fill="#FFF1CC"/>
<path d="M27 33C27 33.5523 26.5523 34 26 34C25.4477 34 25 33.5523 25 33C25 32.4477 25.4477 32 26 32C26.5523 32 27 32.4477 27 33Z" fill="#FFF1CC"/>
<path d="M27 17C27 17.5523 26.5523 18 26 18C25.4477 18 25 17.5523 25 17C25 16.4477 25.4477 16 26 16C26.5523 16 27 16.4477 27 17Z" fill="#FFF1CC"/>
<path d="M27 25C27 25.5523 26.5523 26 26 26C25.4477 26 25 25.5523 25 25C25 24.4477 25.4477 24 26 24C26.5523 24 27 24.4477 27 25Z" fill="#FFF1CC"/>
</svg>
